<?xml version="1.0" encoding="utf-8"?>
<svg viewBox="0 0 500 500" xmlns="http://www.w3.org/2000/svg">
  <polygon style="fill: rgb(216, 216, 216); stroke: rgb(0, 0, 0);" points="110.808 138.28 91.95 87.697 94.124 67.216 107.456 61.601 118.951 74.21 120.666 136.522 129.667 133.944 139.855 136.68 136.258 76.384 146.376 59.645 160.282 59.645 168.232 73.763 152.008 138.977 166.745 150.416 170.737 165.163 168.714 178.504 159.832 191.496 152.73 201.28 172.066 197.118 210.512 193.733 245.365 197.849 272.215 206.894 286.947 219.096 287.311 206.732 292.989 195.668 307.237 195.668 322.944 205.742 325.339 223.422 312.67 228.222 300.017 231.15 308.1 248.679 305.85 268.102 291.086 283.266 261.407 296.045 226.808 302.613 193.278 306.562 150.946 306.007 116.18 301.682 90.004 290.623 79.5 270.314 84.832 248.473 93.666 228.776 101.323 220.358 112.605 208.544 100.859 206.896 87.401 199.328 82.364 185.67 84.519 167.068 90.31 153.742 97.17 142.268"/>
</svg>