<?xml version="1.0" encoding="utf-8"?>
<svg viewBox="0 0 500 500" xmlns="http://www.w3.org/2000/svg">
  <polygon style="fill: rgb(216, 216, 216); stroke: rgb(0, 0, 0);" points="140.715 106.952 146.558 95.825 158.627 83.842 171.473 74.5 193.348 64.935 216.428 62.337 238.226 64.915 260.445 73.371 282.236 90.029 294.629 107.359 300.663 121.97 304.958 141.056 302.812 172.071 293.828 194.455 281.92 210.449 265.712 224.351 243.943 234.361 214.86 238.873 192.848 234.765 171.787 226.968 157.133 216.321 146.582 204.868 141.153 195.493 160.423 209.285 176.173 214.542 198.378 213.904 218.337 207.254 234.15 194.508 246.976 175.308 252.132 157.834 249.677 135.709 245.075 120.939 232.631 103.694 207.873 91.103 182.811 88.484 153.874 96.759"/>
</svg>