<?xml version="1.0" encoding="utf-8"?>
<svg viewBox="0 0 500 500" xmlns="http://www.w3.org/2000/svg">
  <path style="fill: rgb(216, 216, 216); stroke: rgb(0, 0, 0);" d="M 160.384 221.28 L 192.002 247.873 L 194.597 250.222 L 196.559 252.189 L 197.089 255.059 L 197.634 259.612 L 198.804 267.697 L 199.538 273.901 L 200.183 276.873 L 201.32 278.809 L 203.62 280.132 L 206.271 280.769 L 209.159 280.207 L 211.394 278.813 L 212.565 276.409 L 212.713 272.653 L 211.606 266.151 L 209.614 252.471 L 209.223 249.111 L 207.792 246.029 L 205.825 242.993 L 204.494 241.413 L 194.618 233.379 L 208.446 230.973 L 211.403 230.912 L 214.441 231.863 L 232.677 241.447 L 235.673 241.999 L 238.246 241.215 L 240.463 239.791 L 241.595 237.243 L 241.692 234.107 L 240.78 231.579 L 238.814 229.751 L 218.621 219.837 L 216.142 218.466 L 212.917 217.8 L 209.471 217.703 L 206.011 218.155 L 191.007 220.197 L 188.061 218.291 L 173.637 203.821 L 181.539 201.46 L 185.019 200.046 L 187.44 198.183 L 189.654 195.186 L 191.161 191.934 L 192.821 180.065 L 193.09 176.875 L 191.821 174.222 L 189.579 172.676 L 186.727 172.513 L 184.456 173.447 L 182.389 175.554 L 182.036 177.88 L 180.458 189.472 L 179.303 190.831 L 163.883 195.598 L 159.604 197.79 L 157.811 197.933 L 156.89 197.562 L 156.202 196.159 L 156.574 193.755 L 156.552 190.637 L 155.371 187.379 L 153.667 185.003 L 152.049 183.33 L 149.783 182.084 L 147.071 181.222 L 144.213 180.986 L 141.508 181.432 L 139.459 182.313 L 137.564 183.512 L 135.886 184.888 L 134.447 187.002 L 133.445 189.169 L 132.719 192.746 L 133.064 196.171 L 134.39 199.221 L 136.551 201.762 L 138.422 202.937 L 141.179 204.007 L 143.074 204.348 L 144.707 204.335 L 146.955 204.207 L 148.767 203.847 C 148.751 203.824 150.76 203.087 150.76 203.087 L 152.193 204.042 L 152.693 205.535 L 152.217 207.896 L 150.358 216.366 L 148.286 226.102 L 147.792 228.835 L 147.792 231.12 L 148.342 233.476 L 153.302 247.942 L 154.705 250.17 L 156.904 251.224 L 159.21 251.388 L 161.106 250.833 L 162.685 249.574 L 163.712 247.775 L 163.934 245.411 L 163.53 243.606 L 158.764 230.654 L 158.695 229.186 L 160.384 221.28 Z"/>
</svg>