<?xml version="1.0" encoding="utf-8"?>
<svg viewBox="0 0 500 500" xmlns="http://www.w3.org/2000/svg">
  <polygon style="fill: rgb(216, 216, 216); stroke: rgb(0, 0, 0);" points="151.611 279.843 171.429 279.539 171.434 244.502 156.981 244.659 156.739 237.705 196.052 237.998 195.664 244.799 180.86 244.538 181.195 279.132 202.767 279.281 202.462 237.515 239.208 237.839 239.147 244.761 211.552 244.36 212.284 253.943 237.175 254.153 237.11 261.551 212.399 261.41 212.207 272.257 239.894 272.398 239.855 279.472 243.613 279.496 260.21 257.546 245.109 237.828 257.058 237.696 266.694 251.086 276.049 237.755 288.325 237.466 272.566 257.81 289.416 279.502 279.488 279.577 267.165 263.384 255.462 279.322 279.5 279.59 289.417 279.493 305.847 279.667 305.708 244.701 290.863 244.73 290.916 237.454 330.16 237.598 330.119 244.756 315.25 244.798 315.727 279.378 338.824 279.437 338.875 305.485 151.097 304.894"/>
</svg>